<?xml version="1.0" encoding="iso-8859-1"?>
<!-- Uploaded to: SVG Repo, www.svgrepo.com, Generator: SVG Repo Mixer Tools -->
<svg version="1.1" id="Layer_1" xmlns="http://www.w3.org/2000/svg" xmlns:xlink="http://www.w3.org/1999/xlink" 
	 viewBox="0 0 512 512" xml:space="preserve" width='80px' height='80px'>
<polygon style="fill:#57565C;" points="428.248,407.297 396.837,454.413 386.032,454.413 332.162,512 180.897,512 126.493,454.413 
	114.117,454.413 82.706,407.297 "/>
<path style="fill:#ACABB1;" d="M431.379,139.245v12.575h-44.038c0,0.01-0.01,0.01-0.01,0.021c-0.031,0.084-0.063,0.157-0.094,0.241
	H125.812c-0.031-0.084-0.063-0.157-0.094-0.241c0-0.01-0.01-0.01-0.01-0.021H72.235l31.411-47.117h31.579l43.578-46.07H332.12
	l44.122,46.07h32.113L431.379,139.245z"/>
<path style="fill:#FFDA44;" d="M263.853,407.213h96.107c0,0.031,0.01,0.052,0.021,0.084h16.376c-0.01-0.031-0.021-0.052-0.021-0.084
	c-25.271-83.711-21.407-173.86,10.901-255.131H125.811c32.307,81.271,36.172,171.419,10.901,255.131c0,0.031-0.01,0.052-0.021,0.084
	h127.162V407.213z"/>
<path style="fill:#FF9811;" d="M306.258,334.528c0,14.292-6.23,27.746-16.585,37.044h-66.361
	c-10.408-9.277-16.522-22.616-16.522-37.044c0-25.16,39.138-74.727,43.609-80.297l6.125-7.643l6.125,7.643
	C267.12,259.801,306.258,309.367,306.258,334.528z"/>
<path id="SVGCleanerId_0" d="M387.344,151.82h52.425l-31.411-47.117H376.24l-44.119-46.07h-58.844v15.706h52.14l6.016,6.282h-46.639
	v15.706h61.679l8.021,8.376h-18.658v15.706h64.116l10.47,15.706H198.675v15.706h49.472v74.863h15.706V151.82h106.635
	c-3.145,8.264-6.01,16.611-8.594,25.029h-56.741v15.706h52.259c-1.006,3.827-1.944,7.667-2.836,11.517h-33.91v15.706h30.593
	c-11.798,62.009-8.971,126.337,8.721,187.519h-25.713v15.706h64.64l-10.47,15.706H197.105v15.706h199.737l31.411-47.117h-51.891
	C351.044,323.467,354.923,233.187,387.344,151.82z"/>
<polygon points="325.379,496.294 187.664,496.294 179.753,487.918 226.238,487.918 226.238,472.213 164.922,472.213 
	155.382,462.111 143.963,472.893 180.894,512 332.16,512 369.037,472.85 357.606,462.082 "/>
<path id="SVGCleanerId_1" d="M264.377,26.699c0-6.062,4.932-10.994,10.994-10.994s10.994,4.932,10.994,10.994v13.611h15.706V26.699
	C302.07,11.977,290.092,0,275.371,0c-14.722,0-26.699,11.977-26.699,26.699v54.446h15.706V26.699z"/>
<path id="SVGCleanerId_2" d="M256.524,246.585l-6.127,7.645c-4.464,5.568-43.607,55.135-43.607,80.297
	c0,18.884,10.479,35.906,27.348,44.422l7.078-14.021c-11.547-5.829-18.72-17.478-18.72-30.401c0-12.986,18.904-42.434,34.029-62.565
	c15.124,20.13,34.029,49.578,34.029,62.565c0,13.13-7.682,25.225-19.57,30.815l6.683,14.212
	c17.369-8.166,28.593-25.841,28.593-45.028c0-25.162-39.143-74.729-43.607-80.297L256.524,246.585z"/>
<path id="SVGCleanerId_3" d="M176.164,438.708h-53.646l-10.47-15.706h201.278v-15.706h-49.472v-62.299h-15.706v62.299h-95.079
	c24.274-83.941,20.569-173.813-10.509-255.476h35.176v-15.706h-76.158l10.47-15.706h202.848v-15.706H156.845l28.721-30.364h53.158
	V58.634h-59.922l-43.575,46.07h-31.585L72.231,151.82h53.472c32.42,81.367,36.3,171.648,10.982,255.476H82.701l31.411,47.117h62.051
	v-15.706H176.164z"/>
<rect id="SVGCleanerId_4" x="293.516" y="204.078" width="19.388" height="15.706"/>
<rect id="SVGCleanerId_5" x="233.992" y="472.213" width="19.39" height="15.706"/>
<g>
	<path id="SVGCleanerId_0_1_" d="M387.344,151.82h52.425l-31.411-47.117H376.24l-44.119-46.07h-58.844v15.706h52.14l6.016,6.282
		h-46.639v15.706h61.679l8.021,8.376h-18.658v15.706h64.116l10.47,15.706H198.675v15.706h49.472v74.863h15.706V151.82h106.635
		c-3.145,8.264-6.01,16.611-8.594,25.029h-56.741v15.706h52.259c-1.006,3.827-1.944,7.667-2.836,11.517h-33.91v15.706h30.593
		c-11.798,62.009-8.971,126.337,8.721,187.519h-25.713v15.706h64.64l-10.47,15.706H197.105v15.706h199.737l31.411-47.117h-51.891
		C351.044,323.467,354.923,233.187,387.344,151.82z"/>
</g>
<polygon points="325.379,496.294 187.664,496.294 179.753,487.918 226.238,487.918 226.238,472.213 164.922,472.213 
	155.382,462.111 143.963,472.893 180.894,512 332.16,512 369.037,472.85 357.606,462.082 "/>
<g>
	<path id="SVGCleanerId_1_1_" d="M264.377,26.699c0-6.062,4.932-10.994,10.994-10.994s10.994,4.932,10.994,10.994v13.611h15.706
		V26.699C302.07,11.977,290.092,0,275.371,0c-14.722,0-26.699,11.977-26.699,26.699v54.446h15.706V26.699z"/>
</g>
<g>
	<path id="SVGCleanerId_2_1_" d="M256.524,246.585l-6.127,7.645c-4.464,5.568-43.607,55.135-43.607,80.297
		c0,18.884,10.479,35.906,27.348,44.422l7.078-14.021c-11.547-5.829-18.72-17.478-18.72-30.401
		c0-12.986,18.904-42.434,34.029-62.565c15.124,20.13,34.029,49.578,34.029,62.565c0,13.13-7.682,25.225-19.57,30.815l6.683,14.212
		c17.369-8.166,28.593-25.841,28.593-45.028c0-25.162-39.143-74.729-43.607-80.297L256.524,246.585z"/>
</g>
<g>
	<path id="SVGCleanerId_3_1_" d="M176.164,438.708h-53.646l-10.47-15.706h201.278v-15.706h-49.472v-62.299h-15.706v62.299h-95.079
		c24.274-83.941,20.569-173.813-10.509-255.476h35.176v-15.706h-76.158l10.47-15.706h202.848v-15.706H156.845l28.721-30.364h53.158
		V58.634h-59.922l-43.575,46.07h-31.585L72.231,151.82h53.472c32.42,81.367,36.3,171.648,10.982,255.476H82.701l31.411,47.117
		h62.051v-15.706H176.164z"/>
</g>
<g>
	<rect id="SVGCleanerId_4_1_" x="293.516" y="204.078" width="19.388" height="15.706"/>
</g>
<g>
	<rect id="SVGCleanerId_5_1_" x="233.992" y="472.213" width="19.39" height="15.706"/>
</g>
</svg>